<svg width="125" height="37" viewBox="0 0 125 37" fill="none" xmlns="http://www.w3.org/2000/svg">
<path d="M4.586 36C3.658 36 2.794 35.808 1.994 35.424C1.226 35.04 0.842 34.464 0.842 33.696V3.168C0.842 2.368 1.226 1.792 1.994 1.44C2.794 1.088 3.658 0.912 4.586 0.912C5.514 0.912 6.362 1.088 7.13 1.44C7.93 1.792 8.33 2.368 8.33 3.168V14.928H17.882V3.168C17.882 2.368 18.266 1.792 19.034 1.44C19.834 1.088 20.698 0.912 21.626 0.912C22.554 0.912 23.402 1.088 24.17 1.44C24.97 1.792 25.37 2.368 25.37 3.168V33.696C25.37 34.464 24.97 35.04 24.17 35.424C23.402 35.808 22.554 36 21.626 36C20.698 36 19.834 35.808 19.034 35.424C18.266 35.04 17.882 34.464 17.882 33.696V20.688H8.33V33.696C8.33 34.464 7.93 35.04 7.13 35.424C6.362 35.808 5.514 36 4.586 36ZM40.1608 36.48C38.2088 36.48 36.4008 36.016 34.7368 35.088C33.1048 34.128 31.7768 32.88 30.7528 31.344C29.7608 29.776 29.2648 28.096 29.2648 26.304V22.944C29.2648 21.152 29.7448 19.488 30.7048 17.952C31.6968 16.416 33.0248 15.184 34.6888 14.256C36.3528 13.328 38.1768 12.864 40.1608 12.864C42.1128 12.864 43.9208 13.328 45.5848 14.256C47.2488 15.152 48.5768 16.368 49.5688 17.904C50.5928 19.408 51.1048 21.088 51.1048 22.944V26.304C51.1048 28.064 50.5928 29.728 49.5688 31.296C48.5768 32.832 47.2488 34.08 45.5848 35.04C43.9208 36 42.1128 36.48 40.1608 36.48ZM40.1608 30C40.8008 30 41.3768 29.824 41.8888 29.472C42.4328 29.12 42.8648 28.672 43.1848 28.128C43.5048 27.552 43.6648 26.944 43.6648 26.304V22.944C43.6648 22.336 43.5048 21.76 43.1848 21.216C42.8648 20.672 42.4328 20.224 41.8888 19.872C41.3768 19.52 40.8008 19.344 40.1608 19.344C39.5208 19.344 38.9288 19.52 38.3848 19.872C37.8728 20.224 37.4568 20.672 37.1368 21.216C36.8488 21.76 36.7048 22.336 36.7048 22.944V26.304C36.7048 26.944 36.8488 27.552 37.1368 28.128C37.4568 28.672 37.8728 29.12 38.3848 29.472C38.9288 29.824 39.5208 30 40.1608 30ZM68.2786 36.48C66.7426 36.48 65.3506 36.096 64.1026 35.328C62.8866 34.528 62.0386 33.632 61.5586 32.64V33.696C61.5586 34.272 61.2386 34.8 60.5986 35.28C59.9586 35.76 59.1746 36 58.2466 36C57.1906 36 56.3106 35.76 55.6066 35.28C54.9346 34.8 54.5986 34.272 54.5986 33.696V2.352C54.5986 1.68 54.9346 1.136 55.6066 0.719999C56.3106 0.303999 57.1906 0.0959988 58.2466 0.0959988C59.3026 0.0959988 60.1986 0.303999 60.9346 0.719999C61.6706 1.136 62.0386 1.68 62.0386 2.352V16.512C62.5506 15.584 63.3186 14.752 64.3426 14.016C65.3986 13.248 66.6626 12.864 68.1346 12.864C69.7026 12.864 71.1266 13.328 72.4066 14.256C73.6866 15.152 74.7106 16.368 75.4786 17.904C76.2466 19.408 76.6306 21.088 76.6306 22.944V26.304C76.6306 28.064 76.2466 29.728 75.4786 31.296C74.7106 32.832 73.6866 34.08 72.4066 35.04C71.1586 36 69.7826 36.48 68.2786 36.48ZM65.7346 30C66.3746 30 66.9506 29.824 67.4626 29.472C68.0066 29.12 68.4226 28.656 68.7106 28.08C69.0306 27.504 69.1906 26.912 69.1906 26.304V22.944C69.1906 22.336 69.0306 21.76 68.7106 21.216C68.4226 20.672 68.0066 20.224 67.4626 19.872C66.9506 19.52 66.3586 19.344 65.6866 19.344C65.1106 19.344 64.5346 19.488 63.9586 19.776C63.4146 20.064 62.9506 20.48 62.5666 21.024C62.2146 21.536 62.0386 22.176 62.0386 22.944V26.928C62.0386 27.184 62.1986 27.568 62.5186 28.08C62.8706 28.56 63.3186 29.008 63.8626 29.424C64.4386 29.808 65.0626 30 65.7346 30ZM93.8724 36.48C92.3364 36.48 90.9444 36.096 89.6964 35.328C88.4804 34.528 87.6324 33.632 87.1524 32.64V33.696C87.1524 34.272 86.8324 34.8 86.1924 35.28C85.5524 35.76 84.7684 36 83.8404 36C82.7844 36 81.9044 35.76 81.2004 35.28C80.5284 34.8 80.1924 34.272 80.1924 33.696V2.352C80.1924 1.68 80.5284 1.136 81.2004 0.719999C81.9044 0.303999 82.7844 0.0959988 83.8404 0.0959988C84.8964 0.0959988 85.7924 0.303999 86.5284 0.719999C87.2644 1.136 87.6324 1.68 87.6324 2.352V16.512C88.1444 15.584 88.9124 14.752 89.9364 14.016C90.9924 13.248 92.2564 12.864 93.7284 12.864C95.2964 12.864 96.7204 13.328 98.0004 14.256C99.2804 15.152 100.304 16.368 101.072 17.904C101.84 19.408 102.224 21.088 102.224 22.944V26.304C102.224 28.064 101.84 29.728 101.072 31.296C100.304 32.832 99.2804 34.08 98.0004 35.04C96.7524 36 95.3764 36.48 93.8724 36.48ZM91.3284 30C91.9684 30 92.5444 29.824 93.0564 29.472C93.6004 29.12 94.0164 28.656 94.3044 28.08C94.6244 27.504 94.7844 26.912 94.7844 26.304V22.944C94.7844 22.336 94.6244 21.76 94.3044 21.216C94.0164 20.672 93.6004 20.224 93.0564 19.872C92.5444 19.52 91.9524 19.344 91.2804 19.344C90.7044 19.344 90.1284 19.488 89.5524 19.776C89.0084 20.064 88.5444 20.48 88.1604 21.024C87.8084 21.536 87.6324 22.176 87.6324 22.944V26.928C87.6324 27.184 87.7924 27.568 88.1124 28.08C88.4644 28.56 88.9124 29.008 89.4564 29.424C90.0324 29.808 90.6564 30 91.3284 30ZM109.866 36C108.778 36 107.882 35.76 107.178 35.28C106.506 34.8 106.17 34.272 106.17 33.696V2.352C106.17 1.68 106.506 1.136 107.178 0.719999C107.882 0.303999 108.778 0.0959988 109.866 0.0959988C110.89 0.0959988 111.77 0.303999 112.506 0.719999C113.242 1.136 113.61 1.68 113.61 2.352V33.696C113.61 34.272 113.242 34.8 112.506 35.28C111.77 35.76 110.89 36 109.866 36Z" fill="white"/>
<path d="M120.988 36.288C119.932 36.288 119.052 35.92 118.348 35.184C117.644 34.448 117.292 33.584 117.292 32.592C117.292 31.568 117.644 30.704 118.348 30C119.052 29.264 119.932 28.896 120.988 28.896C121.98 28.896 122.828 29.264 123.532 30C124.268 30.704 124.636 31.568 124.636 32.592C124.636 33.584 124.268 34.448 123.532 35.184C122.828 35.92 121.98 36.288 120.988 36.288Z" fill="#2972FE"/>
</svg>
