<svg width="19" height="18" viewBox="0 0 19 18" fill="none" xmlns="http://www.w3.org/2000/svg">
<g clip-path="url(#clip0_30_1268)">
<path d="M5.97721 16.3125C13.1453 16.3125 17.067 10.6851 17.067 5.80646C17.067 5.64825 17.0633 5.48653 17.0558 5.32833C17.8187 4.80566 18.4771 4.15825 19 3.41653C18.2895 3.71601 17.5351 3.9116 16.7627 3.99661C17.576 3.53474 18.185 2.80917 18.4768 1.95439C17.7116 2.38398 16.8748 2.68702 16.0023 2.85052C15.4144 2.25873 14.6371 1.8669 13.7906 1.7356C12.9441 1.6043 12.0754 1.74085 11.319 2.12413C10.5626 2.50742 9.96059 3.11609 9.60596 3.85604C9.25133 4.596 9.16388 5.42602 9.35713 6.21778C7.80781 6.14413 6.29212 5.76284 4.90832 5.09863C3.52452 4.43443 2.30351 3.50214 1.32443 2.3622C0.826816 3.17499 0.674545 4.1368 0.898566 5.05213C1.12259 5.96746 1.70609 6.76765 2.53049 7.29005C1.91158 7.27144 1.30623 7.11357 0.764453 6.8295V6.87521C0.763899 7.72817 1.07516 8.555 1.64533 9.21514C2.2155 9.87528 3.00938 10.328 3.89203 10.4963C3.31871 10.6449 2.71699 10.6666 2.13342 10.5596C2.38249 11.2931 2.86708 11.9347 3.51957 12.3948C4.17206 12.8549 4.95989 13.1105 5.77311 13.126C4.3925 14.1534 2.68705 14.7107 0.931445 14.708C0.620102 14.7076 0.309066 14.6895 0 14.6539C1.78351 15.7379 3.85821 16.3136 5.97721 16.3125Z" fill="white"/>
</g>
<defs>
<clipPath id="clip0_30_1268">
<rect width="19" height="18" fill="white"/>
</clipPath>
</defs>
</svg>
